<svg class="iso" viewBox="-39.17 -41.59 131.61 77.65" role="img" aria-label="Multimeter reading +3.9 V across the battery plug" xmlns="http://www.w3.org/2000/svg"><image href="check-meter-fill.png" x="-39.17" y="-41.59" width="131.61" height="77.65"/><path d="M-34.30,-14.12 L-2.50,29.33M-34.30,-14.12 L-34.50,-14.42 L-34.68,-14.72 L-34.83,-15.03 L-34.95,-15.35 L-35.05,-15.67 L-35.12,-16.00 L-35.16,-16.33 L-35.17,-16.66M-2.50,29.33 L-2.14,29.77 L-1.72,30.19 L-1.25,30.56 L-0.74,30.91 L-0.18,31.21 L0.41,31.47 L1.04,31.68 L1.68,31.85 L2.35,31.97 L3.03,32.04 L3.72,32.06 L4.41,32.03 L5.08,31.95 L5.75,31.82 L6.39,31.64 L7.01,31.41M35.17,16.66 L35.15,17.01 L35.11,17.36 L35.03,17.71 L34.92,18.05 L34.78,18.38 L34.62,18.71 L34.42,19.03 L34.20,19.34 L33.94,19.63 L33.67,19.92 L33.37,20.18 L33.04,20.44 L32.70,20.67 L32.33,20.89 L31.95,21.09 L31.54,21.27M7.01,31.41 L31.54,21.27M-21.49,-10.35 L-21.32,-10.17 L-21.11,-10.01 L-20.87,-9.89 L-20.59,-9.81 L-20.30,-9.77 L-20.01,-9.77 L-19.72,-9.82 L-19.45,-9.90M-19.45,-9.90 L5.96,-20.41M5.96,-20.41 L6.13,-20.49 L6.28,-20.59 L6.41,-20.70 L6.53,-20.82 L6.62,-20.96 L6.68,-21.10 L6.72,-21.25 L6.74,-21.40M6.74,-21.40 L6.72,-21.54 L6.69,-21.68 L6.63,-21.81 L6.55,-21.94M6.55,-21.94 L-1.64,-33.13M-1.64,-33.13 L-1.81,-33.31 L-2.02,-33.47 L-2.27,-33.59 L-2.54,-33.67 L-2.83,-33.71 L-3.12,-33.71 L-3.41,-33.66 L-3.68,-33.58M-29.09,-23.07 L-3.68,-33.58M-29.09,-23.07 L-29.26,-22.99 L-29.41,-22.90 L-29.55,-22.78 L-29.66,-22.66 L-29.75,-22.53 L-29.81,-22.38 L-29.85,-22.24 L-29.87,-22.09M-29.87,-22.09 L-29.86,-21.95 L-29.82,-21.81 L-29.76,-21.67 L-29.68,-21.54M-21.49,-10.35 L-29.68,-21.54M6.55,-21.61 L6.66,-21.43 L6.72,-21.23M-1.64,-32.80 L6.55,-21.61M-1.64,-32.80 L-1.81,-32.98 L-2.02,-33.14 L-2.27,-33.26 L-2.54,-33.34 L-2.83,-33.38 L-3.12,-33.38 L-3.41,-33.33 L-3.68,-33.25M-29.09,-22.74 L-3.68,-33.25M-29.85,-21.92 L-29.76,-22.17 L-29.60,-22.40 L-29.37,-22.59 L-29.09,-22.74M11.93,-4.76 L11.92,-4.39 L11.88,-4.02 L11.82,-3.65 L11.74,-3.29 L11.63,-2.93 L11.50,-2.57 L11.34,-2.22 L11.17,-1.88 L10.97,-1.54 L10.75,-1.21 L10.50,-0.89 L10.24,-0.58 L9.96,-0.28 L9.66,0.01 L9.34,0.29 L9.00,0.56 L8.64,0.81 L8.27,1.05 L7.48,1.49 L6.64,1.87 L5.75,2.19 L4.83,2.44 L3.88,2.62 L2.91,2.72 L1.93,2.76 L0.95,2.72 L-0.02,2.62 L-0.98,2.44 L-1.90,2.19 L-2.79,1.87 L-3.63,1.49 L-4.42,1.05 L-4.79,0.81 L-5.14,0.56 L-5.48,0.29 L-5.80,0.01 L-6.10,-0.28 L-6.39,-0.58 L-6.65,-0.89 L-6.89,-1.21 L-7.11,-1.54 L-7.31,-1.88 L-7.49,-2.22 L-7.64,-2.57 L-7.77,-2.93 L-7.88,-3.29 L-7.96,-3.65 L-8.02,-4.02 L-8.06,-4.39 L-8.07,-4.76M9.17,16.28 L9.16,16.48 L9.12,16.67 L9.06,16.85 L8.97,17.03 L8.86,17.21 L8.73,17.37 L8.58,17.52 L8.41,17.67 L8.22,17.79 L8.02,17.91 L7.57,18.09 L7.08,18.20 L6.57,18.24 L6.06,18.20 L5.58,18.09 L5.13,17.91 L4.92,17.79 L4.73,17.67 L4.56,17.52 L4.41,17.37 L4.28,17.21 L4.17,17.03 L4.08,16.85 L4.02,16.67 L3.98,16.48 L3.97,16.28M8.85,14.55 L8.99,14.77 L9.09,15.01 L9.15,15.25 L9.17,15.49M9.17,15.49 L9.16,15.68 L9.12,15.87 L9.06,16.06 L8.97,16.24 L8.86,16.41 L8.73,16.58 L8.58,16.73 L8.41,16.87 L8.22,17.00 L8.02,17.12 L7.57,17.30 L7.08,17.41 L6.57,17.45 L6.06,17.41 L5.58,17.30 L5.13,17.12 L4.92,17.00 L4.73,16.87 L4.56,16.73 L4.41,16.58 L4.28,16.41 L4.17,16.24 L4.08,16.06 L4.02,15.87 L3.98,15.68 L3.97,15.49M3.97,15.49 L4.01,15.17 L4.11,14.86 L4.28,14.56 L4.52,14.30 L4.81,14.06 L5.14,13.86 L5.52,13.71 L5.92,13.60 L6.35,13.55 L6.78,13.54 L7.20,13.60 L7.60,13.70 L7.98,13.85 L8.32,14.05 L8.61,14.28 L8.85,14.55M24.94,9.77 L24.93,9.96 L24.89,10.15 L24.83,10.33 L24.75,10.51 L24.64,10.69 L24.51,10.85 L24.35,11.00 L24.18,11.15 L23.99,11.28 L23.79,11.39 L23.34,11.57 L22.85,11.68 L22.34,11.72 L21.84,11.68 L21.35,11.57 L20.90,11.39 L20.69,11.28 L20.51,11.15 L20.33,11.00 L20.18,10.85 L20.05,10.69 L19.94,10.51 L19.86,10.33 L19.79,10.15 L19.76,9.96 L19.74,9.77M24.62,8.03 L24.76,8.25 L24.86,8.49 L24.92,8.73 L24.94,8.97M24.94,8.97 L24.93,9.17 L24.89,9.35 L24.83,9.54 L24.75,9.72 L24.64,9.89 L24.51,10.06 L24.35,10.21 L24.18,10.36 L23.99,10.48 L23.79,10.60 L23.34,10.78 L22.85,10.89 L22.34,10.93 L21.84,10.89 L21.35,10.78 L20.90,10.60 L20.69,10.48 L20.51,10.36 L20.33,10.21 L20.18,10.06 L20.05,9.89 L19.94,9.72 L19.86,9.54 L19.79,9.35 L19.76,9.17 L19.74,8.97M19.74,8.97 L19.78,8.65 L19.88,8.34 L20.06,8.05 L20.29,7.78 L20.58,7.54 L20.92,7.34 L21.29,7.19 L21.70,7.08 L22.12,7.03 L22.55,7.03 L22.97,7.08 L23.38,7.18 L23.75,7.33 L24.09,7.53 L24.39,7.76 L24.62,8.03M-18.71,-4.21 L-17.74,-2.89M-18.71,-4.87 L-17.74,-3.55M-18.71,-4.21 L-18.80,-4.38 L-18.83,-4.57M-17.74,-2.89 L-17.63,-2.77 L-17.49,-2.67 L-17.33,-2.59 L-17.15,-2.53 L-16.95,-2.51 L-16.76,-2.51 L-16.57,-2.54 L-16.39,-2.60M-9.73,-5.79 L-9.77,-5.59 L-9.87,-5.41 L-10.04,-5.25 L-10.25,-5.13M-16.39,-2.60 L-10.25,-5.13M-18.71,-4.87 L-18.80,-5.04 L-18.83,-5.23M-18.83,-5.23 L-18.80,-5.43 L-18.69,-5.61 L-18.53,-5.77 L-18.31,-5.89M-17.74,-3.55 L-17.63,-3.43 L-17.49,-3.33 L-17.33,-3.25 L-17.15,-3.19 L-16.95,-3.17 L-16.76,-3.17 L-16.57,-3.20 L-16.39,-3.26M-18.31,-5.89 L-12.18,-8.42M-10.82,-8.13 L-10.93,-8.25 L-11.07,-8.35 L-11.24,-8.43 L-11.42,-8.49 L-11.61,-8.51 L-11.81,-8.51 L-12.00,-8.48 L-12.18,-8.42M-10.82,-8.13 L-9.86,-6.81M-9.86,-6.81 L-9.77,-6.64 L-9.73,-6.45M-9.73,-6.45 L-9.77,-6.25 L-9.87,-6.07 L-10.04,-5.91 L-10.25,-5.79M-16.39,-3.26 L-10.25,-5.79M4.07,-13.63 L4.35,-13.25M4.07,-14.29 L4.92,-13.12M4.07,-13.63 L3.98,-13.80 L3.95,-13.99M13.05,-15.21 L13.01,-15.01 L12.91,-14.82 L12.74,-14.67 L12.53,-14.55M7.18,-12.34 L12.53,-14.55M4.07,-14.29 L3.98,-14.46 L3.95,-14.65M3.95,-14.65 L3.99,-14.85 L4.09,-15.03 L4.25,-15.19 L4.47,-15.31M6.39,-12.67 L6.40,-12.67M4.47,-15.31 L10.60,-17.84M11.96,-17.54 L11.85,-17.67 L11.71,-17.77 L11.54,-17.85 L11.36,-17.90 L11.17,-17.93 L10.97,-17.93 L10.78,-17.90 L10.60,-17.84M11.96,-17.54 L12.92,-16.23M12.92,-16.23 L13.02,-16.05 L13.05,-15.87M13.05,-15.87 L13.01,-15.67 L12.91,-15.48 L12.74,-15.33 L12.53,-15.21M6.40,-12.67 L12.53,-15.21" fill="none" stroke="#3c3c40" stroke-width="0.190" stroke-linecap="round" stroke-linejoin="round"/><path d="M-35.17,-16.66 L-35.17,-21.61M-31.39,-26.62 L-31.86,-26.41 L-32.30,-26.17 L-32.72,-25.90 L-33.11,-25.61 L-33.48,-25.29 L-33.82,-24.95 L-34.12,-24.59 L-34.39,-24.21 L-34.57,-23.91 L-34.73,-23.60 L-34.86,-23.28 L-34.97,-22.95 L-35.06,-22.62 L-35.12,-22.29 L-35.16,-21.95 L-35.17,-21.61M35.17,16.66 L35.17,11.71M-6.86,-36.76 L-31.39,-26.62M2.39,-34.63 L2.02,-35.08 L1.60,-35.50 L1.13,-35.89 L0.62,-36.23 L0.08,-36.53 L-0.50,-36.79 L-1.11,-37.00 L-1.73,-37.17 L-2.37,-37.29 L-3.03,-37.36 L-3.69,-37.38 L-4.34,-37.35 L-5.00,-37.28 L-5.64,-37.15 L-6.26,-36.98 L-6.86,-36.76M35.17,11.71 L35.15,11.33 L35.11,10.95 L35.03,10.58 L34.92,10.21 L34.78,9.85 L34.62,9.50 L34.42,9.16 L34.20,8.83M34.20,8.83 L2.39,-34.63M-8.07,-5.81 L-8.07,-4.76M11.93,-5.81 L11.93,-4.76M10.65,-9.57 L10.94,-9.14 L11.20,-8.69 L11.42,-8.23 L11.60,-7.76 L11.74,-7.28 L11.85,-6.79 L11.91,-6.30 L11.93,-5.81M-8.07,-5.81 L-8.06,-6.21 L-8.02,-6.62 L-7.95,-7.01 L-7.85,-7.41 L-7.73,-7.80 L-7.58,-8.19 L-7.41,-8.56 L-7.21,-8.93 L-7.01,-9.26 L-6.79,-9.58 L-6.54,-9.89 L-6.29,-10.19 L-5.71,-10.76 L-5.08,-11.29 L-4.72,-11.54 L-4.35,-11.78 L-3.57,-12.22 L-2.73,-12.60 L-1.85,-12.91 L-0.94,-13.15 L0.00,-13.33 L0.96,-13.44 L1.93,-13.47 L2.85,-13.44 L3.77,-13.34 L4.67,-13.18 L5.55,-12.96 L6.40,-12.67 L7.20,-12.33 L7.97,-11.92 L8.68,-11.47 L9.25,-11.04 L9.76,-10.58 L10.23,-10.09 L10.65,-9.57M3.97,15.49 L3.97,16.28M9.17,15.49 L9.17,16.28M19.74,8.97 L19.74,9.77M24.94,8.97 L24.94,9.77M-18.83,-4.57 L-18.83,-5.23M-9.73,-5.79 L-9.73,-6.45M3.95,-13.99 L3.95,-14.65M13.05,-15.21 L13.05,-15.87" fill="none" stroke="#3c3c40" stroke-width="0.316" stroke-linecap="round" stroke-linejoin="round"/><path d="M44.73,-9.05 L47.62,-5.10M47.62,-5.10 L47.62,-8.07M44.73,-9.05 L44.73,-12.02M44.73,-12.02 L47.62,-8.07M45.41,-9.15 L45.98,-8.36M45.98,-8.36 L45.98,-9.29M45.41,-9.15 L45.41,-10.08M45.41,-10.08 L45.98,-9.29M46.37,-7.84 L46.95,-7.05M46.37,-7.84 L46.37,-8.76M46.37,-8.76 L46.95,-7.97M46.95,-7.05 L46.95,-7.97M47.62,-5.10 L52.88,-7.28M47.62,-8.07 L52.88,-10.24M52.88,-7.28 L52.88,-10.24M44.73,-12.02 L49.99,-14.20M49.99,-14.20 L52.88,-10.24M48.30,-9.64 L51.11,-10.80M46.86,-11.61 L48.30,-9.64M45.41,-9.15 L45.92,-9.37M46.37,-7.84 L46.89,-8.05M48.30,-9.64 L48.30,-10.23M48.30,-10.23 L51.11,-11.39M51.11,-10.80 L51.11,-11.39M49.66,-13.37 L51.11,-11.39M46.86,-11.61 L46.86,-12.21M46.86,-12.21 L49.66,-13.37M46.86,-12.21 L48.30,-10.23M51.93,-11.54 L52.32,-11.70M52.32,-11.10 L52.32,-11.70M51.31,-12.40 L51.69,-12.55M51.69,-12.55 L52.32,-11.70M52.88,-9.36 L53.28,-9.52M52.27,-11.08 L52.65,-11.24M52.65,-11.24 L53.28,-10.38M52.88,-10.22 L53.28,-10.38M53.28,-9.52 L53.28,-10.38M54.63,-25.15 L59.24,-18.86M59.83,-18.06 L61.14,-16.26M62.12,-14.92 L67.16,-8.03M54.63,-25.15 L54.53,-25.32 L54.45,-25.50 L54.40,-25.69 L54.38,-25.88M67.16,-8.03 L67.38,-7.79 L67.66,-7.58 L67.99,-7.42 L68.36,-7.31 L68.74,-7.26 L69.13,-7.26 L69.52,-7.32 L69.88,-7.44M88.44,-16.00 L88.42,-15.80 L88.37,-15.60 L88.28,-15.41 L88.16,-15.24 L88.01,-15.07 L87.83,-14.92 L87.63,-14.79 L87.40,-14.68M69.88,-7.44 L87.40,-14.68M52.93,-10.86 L52.94,-10.88M52.94,-10.88 L52.96,-10.82M52.40,-11.47 L52.39,-11.40 L52.36,-11.35M52.36,-11.35 L52.32,-11.31M52.15,-11.92 L52.25,-11.82 L52.34,-11.70 L52.39,-11.58 L52.40,-11.47M60.04,-19.45 L60.09,-19.45 L60.16,-19.41 L60.34,-19.22 L60.51,-18.95 L60.60,-18.72" fill="none" stroke="#3c3c40" stroke-width="0.190" stroke-linecap="round" stroke-linejoin="round"/><path d="M54.38,-25.88 L54.38,-28.65M55.50,-30.18 L55.15,-29.99 L54.99,-29.88 L54.85,-29.75 L54.64,-29.48 L54.53,-29.29 L54.45,-29.08 L54.40,-28.87 L54.38,-28.65M88.44,-16.00 L88.44,-18.77M73.02,-37.42 L55.50,-30.18M75.61,-36.80 L75.38,-37.05 L75.10,-37.26 L74.79,-37.42 L74.45,-37.53 L74.09,-37.59 L73.73,-37.59 L73.37,-37.53 L73.02,-37.42M88.44,-18.77 L88.42,-19.01 L88.36,-19.25 L88.27,-19.47 L88.14,-19.68M88.14,-19.68 L75.61,-36.80M53.28,-9.83 L54.17,-9.70 L55.04,-9.62 L55.89,-9.58 L56.72,-9.60 L57.45,-9.67 L58.14,-9.80 L58.68,-9.95 L59.20,-10.15 L59.68,-10.39 L60.13,-10.67 L60.52,-10.99 L60.87,-11.35 L61.17,-11.74 L61.43,-12.16 L61.67,-12.69 L61.86,-13.24 L61.95,-13.60 L62.02,-13.97 L62.11,-14.73 L62.13,-15.51 L62.09,-16.31M52.94,-10.88 L53.76,-10.74 L54.56,-10.64 L55.34,-10.57 L56.10,-10.55 L56.74,-10.58 L57.36,-10.64 L57.86,-10.73 L58.32,-10.86 L58.76,-11.01 L59.16,-11.20 L59.44,-11.37 L59.70,-11.56 L59.93,-11.77 L60.15,-11.99 L60.39,-12.30 L60.60,-12.64 L60.74,-12.94 L60.86,-13.26 L60.97,-13.59 L61.05,-13.94 L61.11,-14.32 L61.15,-14.72 L61.17,-15.54 L61.13,-16.39 L61.02,-17.26M52.36,-11.35 L53.22,-12.28 L54.14,-13.21 L55.10,-14.14 L56.10,-15.05 L57.16,-15.96 L58.26,-16.85 L59.41,-17.74 L60.59,-18.61M51.88,-12.30 L52.74,-13.22 L53.66,-14.14 L54.61,-15.05 L55.62,-15.95 L56.66,-16.84 L57.75,-17.72 L58.88,-18.59 L60.04,-19.45" fill="none" stroke="#3c3c40" stroke-width="0.316" stroke-linecap="round" stroke-linejoin="round"/><path d="M6.57,16.28 C12.09,26.93 30.49,0.03 38.12,-4.31" fill="none" stroke="#d32f2f" stroke-width="1.1" stroke-linecap="round"/><line x1="38.12" y1="-4.31" x2="43.83" y2="-6.70" stroke="#d32f2f" stroke-width="2.6" stroke-linecap="round"/><line x1="43.83" y1="-6.70" x2="47.01" y2="-8.05" stroke="#3c3c40" stroke-width="0.6" stroke-linecap="round"/><path d="M22.34,9.77 C34.17,17.81 22.78,-10.50 30.40,-14.84" fill="none" stroke="#1d1d1f" stroke-width="1.1" stroke-linecap="round"/><line x1="30.40" y1="-14.84" x2="40.46" y2="-11.31" stroke="#1d1d1f" stroke-width="2.6" stroke-linecap="round"/><line x1="40.46" y1="-11.31" x2="46.05" y2="-9.37" stroke="#3c3c40" stroke-width="0.6" stroke-linecap="round"/><path d="M52.97,-10.38 Q59.30,-10.74 61.48,-17.45" fill="none" stroke="#d32f2f" stroke-width="0.9" stroke-linecap="round"/><path d="M52.00,-11.70 Q55.83,-15.48 60.32,-19.03" fill="none" stroke="#1d1d1f" stroke-width="0.9" stroke-linecap="round"/><text x="-11.57" y="-19.28" font-family="Inter Guide, sans-serif" font-size="6.2" font-weight="600" fill="#1d1d1f" text-anchor="middle">+3.9 V</text></svg>